<?xml version="1.0" encoding="iso-8859-1"?>
<!-- Generator: Adobe Illustrator 16.0.0, SVG Export Plug-In . SVG Version: 6.00 Build 0)  -->
<!DOCTYPE svg PUBLIC "-//W3C//DTD SVG 1.1//EN" "http://www.w3.org/Graphics/SVG/1.1/DTD/svg11.dtd">
<svg version="1.1" id="Layer_1" xmlns="http://www.w3.org/2000/svg" xmlns:xlink="http://www.w3.org/1999/xlink" x="0px" y="0px"
	 width="150px" height="60px" viewBox="0 0 150 60" style="enable-background:new 0 0 150 60;" xml:space="preserve">
<g>
	<g>
		<path d="M28.725,26.084c-2.828,0-4.242,2.728-4.242,8.181v2.162c0,2.591,0.375,4.62,1.122,6.089
			c0.748,1.468,1.852,2.201,3.311,2.201c2.006,0,3.849-1.951,5.527-5.855h0.492l-0.191,6.103h-0.301
			c-0.109-0.199-0.21-0.342-0.301-0.425c-0.092-0.081-0.224-0.122-0.396-0.122c-0.174,0-0.835,0.141-1.984,0.424
			c-1.149,0.283-2.316,0.424-3.502,0.424c-2.973,0-5.276-0.803-6.909-2.407c-1.633-1.605-2.449-4.018-2.449-7.238
			c0-3.219,0.853-5.704,2.559-7.456c1.706-1.75,3.999-2.627,6.881-2.627c1.112,0,2.203,0.142,3.27,0.425
			c1.067,0.282,1.692,0.424,1.875,0.424c0.181,0,0.319-0.042,0.41-0.124c0.091-0.081,0.191-0.223,0.301-0.424h0.301l0.218,5.937
			h-0.492c-0.821-1.842-1.665-3.25-2.531-4.227C30.827,26.573,29.837,26.084,28.725,26.084z"/>
		<path d="M37.234,25.838h9.85v0.602h-2.9v17.95h0.985c1.55,0,2.786-0.475,3.708-1.423c0.921-0.948,1.855-2.409,2.804-4.378h0.575
			l-0.521,6.402H37.234V44.39h1.615V26.44h-1.615V25.838z"/>
		<path d="M64.787,44.471l-1.998-5.909h-5.417l-2.107,5.909h2.052v0.521H53.13v-0.521h1.286l6.978-18.797h2.243l6.896,18.797h1.258
			v0.521h-8.947v-0.521H64.787z M60.19,30.791l-2.572,7.168h4.953L60.19,30.791z"/>
		<path d="M80.575,44.689c0.911,0,1.719-0.245,2.422-0.738c0.701-0.493,1.053-1.236,1.053-2.229c0-0.995-0.379-1.756-1.136-2.284
			c-0.757-0.53-1.833-0.99-3.228-1.382c-1.396-0.393-2.408-0.734-3.039-1.027c-0.628-0.292-1.226-0.675-1.791-1.148
			c-1.132-0.949-1.697-2.418-1.697-4.405c0-1.623,0.577-3.019,1.737-4.186c1.158-1.168,2.74-1.752,4.747-1.752
			c0.967,0,1.974,0.142,3.023,0.425c1.048,0.282,1.701,0.424,1.957,0.424s0.482-0.183,0.684-0.548h0.3l0.193,5.526h-0.438
			c-0.875-1.587-1.792-2.858-2.749-3.816c-0.96-0.957-1.998-1.437-3.12-1.437c-1.121,0-1.993,0.26-2.613,0.78
			c-0.62,0.519-0.931,1.213-0.931,2.079c0,0.867,0.371,1.533,1.108,1.999c0.739,0.465,1.647,0.844,2.723,1.135
			c1.076,0.292,1.783,0.493,2.12,0.601c0.338,0.111,0.758,0.262,1.259,0.452c0.502,0.193,0.912,0.393,1.231,0.604
			c0.32,0.21,0.658,0.475,1.012,0.792c0.356,0.319,0.634,0.672,0.836,1.054c0.492,0.876,0.739,1.915,0.739,3.119
			c0,1.971-0.615,3.553-1.848,4.748c-1.23,1.194-2.851,1.792-4.855,1.792c-1.041,0-2.231-0.138-3.571-0.41
			c-1.342-0.274-2.085-0.41-2.23-0.41c-0.256,0-0.503,0.272-0.74,0.82h-0.383l-0.274-6.512h0.464
			c0.804,1.587,1.831,2.973,3.08,4.158C77.871,44.097,79.188,44.689,80.575,44.689z"/>
		<path d="M96.444,44.689c0.912,0,1.72-0.245,2.422-0.738c0.701-0.493,1.053-1.236,1.053-2.229c0-0.995-0.378-1.756-1.136-2.284
			c-0.755-0.53-1.833-0.99-3.228-1.382c-1.396-0.393-2.408-0.734-3.038-1.027c-0.628-0.292-1.226-0.675-1.791-1.148
			c-1.131-0.949-1.697-2.418-1.697-4.405c0-1.623,0.579-3.019,1.737-4.186c1.159-1.168,2.74-1.752,4.748-1.752
			c0.966,0,1.974,0.142,3.022,0.425c1.049,0.282,1.701,0.424,1.957,0.424s0.482-0.183,0.685-0.548h0.3l0.192,5.526h-0.438
			c-0.876-1.587-1.793-2.858-2.75-3.816c-0.958-0.957-1.997-1.437-3.12-1.437c-1.12,0-1.993,0.26-2.612,0.78
			c-0.62,0.519-0.931,1.213-0.931,2.079c0,0.867,0.37,1.533,1.108,1.999c0.738,0.465,1.646,0.844,2.722,1.135
			c1.077,0.292,1.783,0.493,2.122,0.601c0.337,0.111,0.756,0.262,1.258,0.452c0.501,0.193,0.912,0.393,1.231,0.604
			c0.319,0.21,0.657,0.475,1.012,0.792c0.355,0.319,0.635,0.672,0.835,1.054c0.492,0.876,0.739,1.915,0.739,3.119
			c0,1.971-0.615,3.553-1.848,4.748c-1.23,1.194-2.851,1.792-4.855,1.792c-1.04,0-2.23-0.138-3.571-0.41
			c-1.341-0.274-2.085-0.41-2.23-0.41c-0.256,0-0.503,0.272-0.738,0.82h-0.383l-0.274-6.512h0.465
			c0.803,1.587,1.829,2.973,3.078,4.158C93.74,44.097,95.058,44.689,96.444,44.689z"/>
		<path d="M104.653,25.838h8.345v0.52h-1.505v18.113h1.505v0.521h-8.345v-0.521h1.504V26.357h-1.504V25.838z"/>
		<path d="M124.627,26.084c-2.828,0-4.24,2.728-4.24,8.181v2.162c0,2.591,0.374,4.62,1.121,6.089
			c0.748,1.468,1.852,2.201,3.312,2.201c2.006,0,3.849-1.951,5.527-5.855h0.491l-0.19,6.103h-0.301
			c-0.109-0.199-0.211-0.342-0.303-0.425c-0.09-0.081-0.223-0.122-0.396-0.122c-0.174,0-0.835,0.141-1.983,0.424
			c-1.149,0.283-2.316,0.424-3.503,0.424c-2.973,0-5.275-0.803-6.909-2.407c-1.632-1.605-2.448-4.018-2.448-7.238
			c0-3.219,0.853-5.704,2.558-7.456c1.705-1.75,3.999-2.627,6.882-2.627c1.113,0,2.202,0.142,3.271,0.425
			c1.066,0.282,1.69,0.424,1.873,0.424s0.319-0.042,0.412-0.124c0.09-0.081,0.19-0.223,0.3-0.424h0.301l0.22,5.937h-0.492
			c-0.821-1.842-1.665-3.25-2.532-4.227C126.73,26.573,125.74,26.084,124.627,26.084z"/>
	</g>
	<g>
		<polygon points="148.389,19.323 1.953,19.323 3.953,18.991 146.389,18.991 		"/>
	</g>
	<g>
		<polygon points="146.389,51.573 3.953,51.573 1.953,51.241 148.389,51.241 		"/>
	</g>
	<g>
		<path d="M67.641,6.124l0.16,4.006h-0.303c-0.469-1.415-0.884-2.38-1.246-2.896c-0.362-0.517-0.884-0.774-1.563-0.774h-0.192
			v10.502h1.356v0.334h-5.825v-0.334h1.356V6.459h-0.208c-0.681,0-1.208,0.269-1.58,0.806c-0.373,0.538-0.782,1.493-1.229,2.865
			h-0.303l0.159-4.006H67.641z"/>
		<path d="M68.726,6.124h4.98v0.303h-0.927v4.948h3.176V6.427h-0.941V6.124h4.994v0.303h-0.941v10.565h0.941v0.303h-4.994v-0.303
			h0.941V11.79h-3.176v5.203h0.927v0.303h-4.98v-0.303h0.941V6.427h-0.941V6.124z"/>
		<path d="M80.681,6.124h8.301l0.157,3.16h-0.286c-0.447-1.075-0.916-1.812-1.404-2.21c-0.49-0.399-1.208-0.599-2.155-0.599h-0.559
			v4.932h0.542c0.502,0,0.921-0.188,1.262-0.566c0.341-0.377,0.58-0.886,0.718-1.524h0.238v4.724h-0.269
			c-0.193-0.797-0.45-1.367-0.774-1.708c-0.325-0.34-0.77-0.511-1.333-0.511h-0.384v5.124h0.607c0.978,0,1.811-0.292,2.496-0.877
			c0.687-0.585,1.158-1.335,1.413-2.251h0.32l-0.128,3.479h-8.763v-0.351h0.941V6.474h-0.941V6.124z"/>
	</g>
	<path style="fill:none;stroke:#000000;stroke-width:0.5;stroke-miterlimit:10;" d="M55.268,11.505"/>
	<g>
		<path d="M145.234,16.859c0,0-12.837,0.116-25.673,0.233c-6.418,0.075-12.835,0.1-17.649-0.003c-4.812-0.086-8.021-0.23-8.021-0.23
			v-0.066c0,0,3.21-0.144,8.021-0.23c4.814-0.104,11.231-0.079,17.649-0.002c12.836,0.117,25.673,0.233,25.673,0.233V16.859z"/>
	</g>
	<path d="M4.778,16.792c0,0,12.835-0.116,25.672-0.233c6.417-0.076,12.835-0.101,17.648,0.002c4.813,0.086,8.023,0.23,8.023,0.23
		v0.066c0,0-3.209,0.144-8.023,0.23c-4.813,0.103-11.231,0.078-17.648,0.003c-12.836-0.117-25.672-0.233-25.672-0.233V16.792z"/>
	<g>
		<polygon points="146.244,17.173 147.992,16.826 146.244,16.479 145.896,16.826 		"/>
		<path d="M145.897,16.826c0,0.183-0.149,0.333-0.332,0.333l0,0c-0.185,0-0.333-0.149-0.333-0.333l0,0
			c0-0.183,0.148-0.333,0.333-0.333l0,0C145.748,16.493,145.897,16.643,145.897,16.826L145.897,16.826z"/>
	</g>
	<g>
		<polygon points="4.099,17.173 2.35,16.826 4.099,16.479 4.445,16.826 		"/>
		<path d="M5.11,16.826c0,0.183-0.149,0.333-0.333,0.333l0,0c-0.185,0-0.333-0.149-0.333-0.333l0,0c0-0.183,0.148-0.333,0.333-0.333
			l0,0C4.961,16.493,5.11,16.643,5.11,16.826L5.11,16.826z"/>
	</g>
	<path d="M4.943,53.704c0,0,14.498-0.116,28.997-0.232c7.249-0.075,14.499-0.101,19.935,0.002c5.437,0.086,9.061,0.23,9.061,0.23
		v0.067c0,0-3.624,0.145-9.061,0.229c-5.437,0.103-12.687,0.078-19.935,0.003C19.44,53.887,4.943,53.771,4.943,53.771V53.704z"/>
	<g>
		<polygon points="4.596,54.085 2.848,53.737 4.596,53.391 4.943,53.737 		"/>
		<path d="M5.608,53.737c0,0.183-0.148,0.333-0.333,0.333l0,0c-0.183,0-0.333-0.15-0.333-0.333l0,0c0-0.183,0.149-0.332,0.333-0.332
			l0,0C5.459,53.405,5.608,53.555,5.608,53.737L5.608,53.737z"/>
	</g>
	<path d="M145.399,53.771c0,0-14.497,0.115-28.996,0.232c-7.25,0.075-14.499,0.1-19.936-0.003c-5.437-0.085-9.062-0.229-9.062-0.229
		v-0.067c0,0,3.625-0.145,9.062-0.23c5.437-0.103,12.686-0.077,19.936-0.002c14.499,0.116,28.996,0.232,28.996,0.232V53.771z"/>
	<g>
		<polygon points="145.747,54.085 147.495,53.737 145.747,53.391 145.398,53.737 		"/>
		<path d="M145.399,53.737c0,0.183-0.148,0.333-0.332,0.333l0,0c-0.184,0-0.333-0.15-0.333-0.333l0,0
			c0-0.183,0.149-0.332,0.333-0.332l0,0C145.251,53.405,145.399,53.555,145.399,53.737L145.399,53.737z"/>
	</g>
	<g>
		<rect x="74.46" y="53.254" transform="matrix(0.7068 0.7074 -0.7074 0.7068 60.2205 -37.3559)" width="1.425" height="1.423"/>
		<polygon points="68.862,53.962 71.579,53.275 73.47,53.963 71.579,54.651 		"/>
		<polygon points="81.48,53.962 78.764,53.275 76.873,53.963 78.764,54.651 		"/>
	</g>
</g>
</svg>
