<?xml version="1.0" encoding="iso-8859-1"?>
<!-- Generator: Adobe Illustrator 16.0.0, SVG Export Plug-In . SVG Version: 6.00 Build 0)  -->
<!DOCTYPE svg PUBLIC "-//W3C//DTD SVG 1.1//EN" "http://www.w3.org/Graphics/SVG/1.1/DTD/svg11.dtd">
<svg version="1.1" id="Layer_1" xmlns="http://www.w3.org/2000/svg" xmlns:xlink="http://www.w3.org/1999/xlink" x="0px" y="0px"
	 width="467.5px" height="163.764px" viewBox="0 0 467.5 163.764" style="enable-background:new 0 0 467.5 163.764;"
	 xml:space="preserve">
<g>
	<g>
		<path style="fill:#1E1E1E;" d="M87.551,67.846c-8.886,0-13.33,8.573-13.33,25.708v6.789c0,8.141,1.179,14.515,3.525,19.132
			c2.35,4.613,5.818,6.913,10.402,6.913c6.302,0,12.092-6.128,17.364-18.396h1.547l-0.599,19.181h-0.946
			c-0.343-0.622-0.659-1.076-0.945-1.334c-0.291-0.257-0.706-0.384-1.244-0.384c-0.549,0-2.623,0.444-6.232,1.332
			c-3.611,0.89-7.276,1.334-11.005,1.334c-9.34,0-16.576-2.523-21.705-7.56c-5.132-5.043-7.694-12.629-7.694-22.741
			c0-10.113,2.678-17.923,8.039-23.428c5.359-5.5,12.565-8.254,21.616-8.254c3.496,0,6.924,0.446,10.275,1.337
			c3.354,0.885,5.317,1.333,5.891,1.333c0.57,0,1.005-0.132,1.29-0.39c0.285-0.256,0.599-0.702,0.946-1.334h0.945l0.684,18.651
			h-1.544c-2.581-5.781-5.232-10.209-7.952-13.278C94.154,69.385,91.045,67.846,87.551,67.846z"/>
		<path style="fill:#1E1E1E;" d="M114.283,67.075h30.947v1.892h-9.109v56.398h3.092c4.871,0,8.754-1.493,11.651-4.474
			c2.893-2.977,5.826-7.565,8.808-13.754h1.808l-1.636,20.115h-45.561v-1.888h5.075V68.967h-5.075V67.075z"/>
		<path style="fill:#1E1E1E;" d="M200.852,125.617l-6.279-18.563h-17.019l-6.619,18.563h6.447v1.638h-13.155v-1.638h4.041
			L190.19,66.56h7.048l21.666,59.057h3.953v1.638h-28.11v-1.638H200.852z M186.405,82.636l-8.078,22.521h15.559L186.405,82.636z"/>
		<path style="fill:#1E1E1E;" d="M250.451,126.302c2.864,0,5.402-0.771,7.61-2.318c2.198-1.549,3.308-3.883,3.308-7.002
			c0-3.129-1.188-5.522-3.569-7.179c-2.377-1.664-5.76-3.109-10.142-4.341c-4.388-1.237-7.567-2.306-9.549-3.227
			c-1.971-0.92-3.856-2.124-5.629-3.607c-3.557-2.982-5.332-7.596-5.332-13.839c0-5.102,1.812-9.484,5.457-13.153
			c3.643-3.67,8.614-5.504,14.915-5.504c3.037,0,6.203,0.445,9.496,1.335c3.292,0.886,5.346,1.334,6.147,1.334
			c0.806,0,1.514-0.576,2.151-1.722h0.945l0.601,17.361h-1.375c-2.748-4.988-5.627-8.98-8.634-11.991
			c-3.018-3.006-6.276-4.514-9.803-4.514c-3.521,0-6.264,0.816-8.21,2.451c-1.948,1.63-2.923,3.81-2.923,6.532
			c0,2.722,1.164,4.814,3.479,6.279c2.319,1.463,5.174,2.652,8.555,3.568c3.381,0.913,5.603,1.544,6.664,1.89
			c1.062,0.344,2.382,0.82,3.952,1.419c1.58,0.606,2.866,1.233,3.872,1.9c1.002,0.663,2.063,1.49,3.178,2.492
			c1.114,0.996,1.989,2.11,2.628,3.305c1.546,2.758,2.319,6.021,2.319,9.803c0,6.193-1.935,11.164-5.809,14.916
			c-3.862,3.748-8.964,5.633-15.254,5.633c-3.27,0-7.007-0.438-11.215-1.286c-4.218-0.865-6.551-1.288-7.008-1.288
			c-0.806,0-1.581,0.852-2.326,2.574h-1.201l-0.862-20.464h1.458c2.523,4.989,5.751,9.348,9.677,13.066
			C241.956,124.443,246.094,126.302,250.451,126.302z"/>
		<path style="fill:#1E1E1E;" d="M300.307,126.302c2.865,0,5.407-0.771,7.612-2.318c2.199-1.549,3.306-3.883,3.306-7.002
			c0-3.129-1.186-5.522-3.565-7.179c-2.378-1.664-5.76-3.109-10.146-4.341c-4.386-1.237-7.565-2.306-9.541-3.227
			c-1.976-0.92-3.857-2.124-5.627-3.607c-3.554-2.982-5.335-7.596-5.335-13.839c0-5.102,1.818-9.484,5.457-13.153
			c3.64-3.67,8.608-5.504,14.918-5.504c3.037,0,6.203,0.445,9.492,1.335c3.293,0.886,5.337,1.334,6.146,1.334
			c0.807,0,1.513-0.576,2.151-1.722h0.95l0.596,17.361h-1.378c-2.753-4.988-5.633-8.98-8.639-11.991
			c-3.013-3.006-6.276-4.514-9.806-4.514c-3.512,0-6.258,0.816-8.201,2.451c-1.949,1.63-2.929,3.81-2.929,6.532
			c0,2.722,1.164,4.814,3.485,6.279c2.314,1.463,5.173,2.652,8.547,3.568c3.389,0.913,5.604,1.544,6.673,1.89
			c1.055,0.344,2.374,0.82,3.951,1.419c1.57,0.606,2.866,1.233,3.867,1.9c1,0.663,2.061,1.49,3.176,2.492
			c1.115,0.996,1.999,2.11,2.628,3.305c1.546,2.758,2.319,6.021,2.319,9.803c0,6.193-1.935,11.164-5.806,14.916
			c-3.868,3.748-8.961,5.633-15.254,5.633c-3.267,0-7.003-0.438-11.217-1.286c-4.217-0.865-6.555-1.288-7.007-1.288
			c-0.804,0-1.58,0.852-2.316,2.574h-1.202l-0.86-20.464h1.461c2.522,4.989,5.747,9.348,9.671,13.066
			C291.815,124.443,295.959,126.302,300.307,126.302z"/>
		<path style="fill:#1E1E1E;" d="M326.097,67.075h26.222v1.635h-4.726v56.907h4.726v1.638h-26.222v-1.638h4.729v-56.91h-4.729
			V67.075z"/>
		<path style="fill:#1E1E1E;" d="M388.854,67.846c-8.885,0-13.323,8.573-13.323,25.708v6.789c0,8.141,1.182,14.515,3.525,19.132
			c2.348,4.613,5.814,6.913,10.406,6.913c6.304,0,12.094-6.128,17.366-18.396h1.538l-0.596,19.181h-0.944
			c-0.342-0.622-0.664-1.076-0.956-1.334c-0.279-0.257-0.699-0.384-1.24-0.384c-0.546,0-2.627,0.444-6.23,1.332
			c-3.612,0.89-7.274,1.334-11.007,1.334c-9.338,0-16.573-2.523-21.706-7.56c-5.125-5.043-7.692-12.629-7.692-22.741
			c0-10.113,2.685-17.92,8.043-23.425c5.354-5.5,12.557-8.254,21.621-8.254c3.49,0,6.918,0.446,10.276,1.337
			c3.348,0.885,5.308,1.333,5.886,1.333c0.575,0,1.002-0.132,1.295-0.39c0.283-0.256,0.595-0.701,0.944-1.334h0.946l0.688,18.651
			h-1.549c-2.578-5.781-5.229-10.209-7.954-13.278C395.463,69.385,392.351,67.846,388.854,67.846z"/>
	</g>
	<g>
		<polygon style="fill:#1E1E1E;" points="463.509,46.608 3.438,46.608 9.723,45.565 457.227,45.565 		"/>
	</g>
	<g>
		<polygon style="fill:#1E1E1E;" points="457.227,147.93 9.723,147.93 3.438,146.887 463.509,146.887 		"/>
	</g>
	<g>
		<path style="fill:#1E1E1E;" d="M213.124,5.137l0.499,12.586h-0.953c-1.475-4.447-2.776-7.476-3.912-9.098
			c-1.138-1.625-2.778-2.432-4.91-2.432h-0.602v32.995h4.259v1.05h-18.297v-1.05h4.257V6.19h-0.654c-2.14,0-3.796,0.845-4.959,2.531
			c-1.173,1.689-2.461,4.69-3.861,9.002h-0.954l0.497-12.586H213.124z"/>
		<path style="fill:#1E1E1E;" d="M216.53,5.137h15.646v0.95h-2.917v15.547h9.981V6.088h-2.956v-0.95h15.69v0.95h-2.958v33.195h2.958
			v0.951h-15.69v-0.951h2.956V22.938h-9.981v16.348h2.917v0.951H216.53v-0.951h2.958V6.088h-2.958V5.137z"/>
		<path style="fill:#1E1E1E;" d="M254.095,5.137h26.08l0.49,9.931h-0.896c-1.405-3.378-2.876-5.694-4.412-6.944
			c-1.537-1.254-3.795-1.882-6.768-1.882h-1.761v15.495h1.705c1.578,0,2.891-0.592,3.967-1.78c1.073-1.184,1.82-2.782,2.256-4.789
			h0.747V30.01h-0.843c-0.609-2.503-1.418-4.295-2.438-5.366c-1.019-1.069-2.418-1.605-4.186-1.605h-1.209v16.097h1.91
			c3.074,0,5.688-0.915,7.842-2.753c2.161-1.841,3.637-4.197,4.438-7.073h1l-0.394,10.928h-27.541v-1.103h2.958V6.237h-2.958v-1.1
			H254.095z"/>
	</g>
	<path style="fill:#1E1E1E;stroke:#010101;stroke-width:0.5;stroke-miterlimit:10;" d="M196.419,22.044"/>
	<g>
		<g>
			<path style="fill:#1E1E1E;" d="M453.6,38.864c0,0-40.335,0.363-80.665,0.731c-20.162,0.235-40.32,0.315-55.445-0.009
				c-15.12-0.271-25.203-0.723-25.203-0.723v-0.206c0,0,10.09-0.454,25.203-0.726c15.125-0.327,35.284-0.246,55.445-0.005
				c40.329,0.365,80.665,0.731,80.665,0.731V38.864z"/>
		</g>
		<g>
			<polygon style="fill:#1E1E1E;" points="456.772,39.851 462.266,38.761 456.772,37.671 455.677,38.761 			"/>
			<path style="fill:#1E1E1E;" d="M455.677,38.761c0,0.573-0.464,1.047-1.038,1.047l0,0c-0.584,0-1.046-0.47-1.046-1.047l0,0
				c0-0.576,0.462-1.047,1.046-1.047l0,0C455.213,37.715,455.677,38.185,455.677,38.761L455.677,38.761z"/>
		</g>
	</g>
	<g>
		<path style="fill:#1E1E1E;" d="M12.312,38.656c0,0,40.324-0.365,80.659-0.734c20.159-0.237,40.322-0.316,55.445,0.007
			c15.122,0.271,25.206,0.725,25.206,0.725v0.206c0,0-10.083,0.454-25.206,0.723c-15.123,0.324-35.286,0.246-55.445,0.01
			c-40.33-0.367-80.659-0.732-80.659-0.732V38.656L12.312,38.656z"/>
		<g>
			<polygon style="fill:#1E1E1E;" points="10.181,39.851 4.685,38.761 10.181,37.671 11.267,38.761 			"/>
			<path style="fill:#1E1E1E;" d="M13.354,38.761c0,0.573-0.466,1.047-1.045,1.047l0,0c-0.582,0-1.045-0.47-1.045-1.047l0,0
				c0-0.576,0.465-1.047,1.045-1.047l0,0C12.889,37.715,13.354,38.185,13.354,38.761L13.354,38.761z"/>
		</g>
	</g>
	<path style="fill:#1E1E1E;" d="M12.831,154.627c0,0,45.55-0.366,91.102-0.729c22.775-0.237,45.555-0.318,62.633,0.009
		c17.081,0.269,28.469,0.721,28.469,0.721v0.21c0,0-11.388,0.453-28.469,0.717c-17.082,0.326-39.86,0.245-62.633,0.01
		c-45.556-0.364-91.102-0.727-91.102-0.727V154.627L12.831,154.627z"/>
	<g>
		<polygon style="fill:#1E1E1E;" points="11.741,155.82 6.25,154.726 11.741,153.638 12.831,154.726 		"/>
		<path style="fill:#1E1E1E;" d="M14.919,154.726c0,0.576-0.463,1.048-1.046,1.048l0,0c-0.575,0-1.045-0.472-1.045-1.048l0,0
			c0-0.573,0.467-1.042,1.045-1.042l0,0C14.453,153.684,14.919,154.153,14.919,154.726L14.919,154.726z"/>
	</g>
	<path style="fill:#1E1E1E;" d="M454.116,154.837c0,0-45.545,0.354-91.1,0.723c-22.778,0.236-45.551,0.32-62.638-0.008
		c-17.087-0.268-28.475-0.723-28.475-0.723v-0.208c0,0,11.388-0.461,28.475-0.717c17.087-0.331,39.859-0.245,62.638-0.009
		c45.555,0.36,91.1,0.726,91.1,0.726V154.837z"/>
	<g>
		<polygon style="fill:#1E1E1E;" points="455.208,155.82 460.7,154.726 455.208,153.638 454.116,154.726 		"/>
		<path style="fill:#1E1E1E;" d="M454.116,154.726c0,0.576-0.465,1.048-1.046,1.048l0,0c-0.577,0-1.042-0.472-1.042-1.048l0,0
			c0-0.573,0.465-1.042,1.042-1.042l0,0C453.651,153.684,454.116,154.153,454.116,154.726L454.116,154.726z"/>
	</g>
	<g>
		
			<rect x="231.243" y="153.227" transform="matrix(-0.7069 -0.7073 0.7073 -0.7069 288.5668 430.5057)" style="fill:#1E1E1E;" width="4.48" height="4.471"/>
		<polygon style="fill:#1E1E1E;" points="213.649,155.435 222.188,153.276 228.131,155.437 222.188,157.597 		"/>
		<polygon style="fill:#1E1E1E;" points="253.296,155.435 244.762,153.276 238.821,155.437 244.762,157.597 		"/>
	</g>
</g>
</svg>
