<?xml version="1.0" encoding="iso-8859-1"?>
<!-- Generator: Adobe Illustrator 16.0.0, SVG Export Plug-In . SVG Version: 6.00 Build 0)  -->
<!DOCTYPE svg PUBLIC "-//W3C//DTD SVG 1.1//EN" "http://www.w3.org/Graphics/SVG/1.1/DTD/svg11.dtd">
<svg version="1.1" id="Layer_1" xmlns="http://www.w3.org/2000/svg" xmlns:xlink="http://www.w3.org/1999/xlink" x="0px" y="0px"
	 width="40px" height="40px" viewBox="0 0 40 40" style="enable-background:new 0 0 40 40;" xml:space="preserve">
<rect x="-112.75" y="-22" style="fill-rule:evenodd;clip-rule:evenodd;fill:none;stroke:#000000;stroke-miterlimit:10;" width="40" height="40"/>
<g>
	<path style="fill-rule:evenodd;clip-rule:evenodd;fill:#FFFFFF;" d="M-44.652-80.882c-7.583-0.276-14.131-5.106-15.67-13.166
		c-0.192-1.002-0.222-2.036-0.313-3.056c-0.043-0.477,0.142-0.854,0.519-1.164c0.687-0.565,1.351-1.158,2.027-1.735
		c0.661-0.562,1.216-0.542,1.789,0.084c1.271,1.387,2.537,2.78,3.797,4.178c0.597,0.66,0.571,1.203-0.066,1.829
		c-0.745,0.731-1.488,1.465-2.248,2.18c-0.229,0.216-0.289,0.41-0.183,0.715c0.785,2.226,2.288,3.72,4.513,4.5
		c0.283,0.099,0.467,0.054,0.674-0.166c0.715-0.76,1.449-1.502,2.181-2.246c0.653-0.667,1.19-0.694,1.868-0.082
		c1.369,1.24,2.735,2.483,4.097,3.732c0.706,0.646,0.728,1.156,0.099,1.897c-0.476,0.562-0.984,1.097-1.424,1.685
		C-43.459-81.078-44.008-80.739-44.652-80.882z"/>
	<path style="fill-rule:evenodd;clip-rule:evenodd;fill:#FFFFFF;" d="M-42.012-91.892c-0.039-2.093-0.682-3.946-2.166-5.436
		c-1.487-1.491-3.338-2.137-5.463-2.183c0-0.729,0-1.43,0-2.132c5.113-0.215,9.879,3.999,9.78,9.751
		C-40.562-91.892-41.264-91.892-42.012-91.892z"/>
	<path style="fill-rule:evenodd;clip-rule:evenodd;fill:#FFFFFF;" d="M-46.349-91.886c-0.474-2.687-0.479-2.692-3.326-3.314
		c0-0.206,0-0.424,0-0.643c0-0.474,0-0.948,0-1.417c3.366-0.175,5.537,1.969,5.433,5.374
		C-44.929-91.886-45.619-91.886-46.349-91.886z"/>
</g>
<g>
	<path style="fill-rule:evenodd;clip-rule:evenodd;fill:#FFFFFF;" d="M-8.441-97.269c1.998,0,3.995-0.001,5.993,0
		c0.801,0,1.151,0.344,1.152,1.137c0.002,3.145-0.003,6.291,0.006,9.437c0.001,0.284-0.086,0.456-0.313,0.626
		c-1.255,0.935-2.502,1.881-3.737,2.84c-0.242,0.187-0.406,0.213-0.649,0.008c-0.387-0.326-0.795-0.629-1.213-0.914
		c-0.828-0.564-1.776-0.544-2.588,0.043c-0.397,0.289-0.79,0.586-1.172,0.895c-0.188,0.153-0.326,0.186-0.54,0.021
		c-1.3-0.998-2.614-1.978-3.912-2.979c-0.115-0.09-0.202-0.294-0.203-0.446c-0.012-3.205-0.011-6.411-0.006-9.616
		c0-0.681,0.369-1.047,1.055-1.049C-12.525-97.272-10.483-97.269-8.441-97.269z M-6.709-86.963c-0.195,0.083-0.342,0.157-0.496,0.21
		c-1.996,0.693-4.212-0.056-4.44-2.572c-0.201-2.239,1.144-4.247,3.428-4.319c1.063-0.034,2.004,0.276,2.54,1.261
		c0.578,1.06,0.611,2.167,0.01,3.243c-0.179,0.319-0.467,0.637-0.854,0.517c-0.406-0.125-0.276-0.56-0.233-0.861
		c0.112-0.78,0.27-1.554,0.423-2.327c0.045-0.226,0.001-0.349-0.229-0.441c-1.993-0.799-4.236,0.748-4.187,2.896
		c0.029,1.313,1.198,2.001,2.36,1.376c0.266-0.144,0.49-0.365,0.733-0.55c0.438,0.804,1.071,1.01,1.886,0.551
		c0.315-0.177,0.608-0.442,0.825-0.732c0.918-1.232,0.803-3.325-0.215-4.502c-1.003-1.16-2.743-1.556-4.353-0.991
		c-1.982,0.696-3.169,2.55-3.068,4.846c0.063,1.431,0.691,2.571,1.979,3.229c1.365,0.696,2.757,0.57,4.156-0.09
		C-6.537-86.479-6.616-86.7-6.709-86.963z M-8.459-95.46c1.252,0,2.503-0.001,3.754,0c0.339,0,0.708,0.016,0.715-0.454
		c0.007-0.465-0.349-0.476-0.695-0.475c-1.43,0.003-2.86,0.002-4.291,0.002c-1.133,0-2.264-0.004-3.396,0.003
		c-0.403,0.002-0.639,0.246-0.56,0.562c0.076,0.303,0.308,0.364,0.586,0.363C-11.051-95.462-9.754-95.46-8.459-95.46z"/>
	<path style="fill-rule:evenodd;clip-rule:evenodd;fill:#FFFFFF;" d="M1.195-76.574c-6.477,0-12.831,0-19.187,0
		c-0.009-0.033-0.02-0.066-0.029-0.1c0.72-0.547,1.438-1.096,2.159-1.643c2.103-1.592,4.206-3.185,6.31-4.775
		c0.912-0.69,1.28-0.685,2.187,0.002c2.707,2.053,5.417,4.103,8.126,6.156C0.876-76.847,0.983-76.75,1.195-76.574z M-8.689-78.314
		c0-0.001,0-0.002,0-0.002c-0.672,0-1.344,0.005-2.014-0.003c-0.327-0.003-0.589,0.1-0.599,0.451
		c-0.008,0.382,0.269,0.483,0.61,0.481c1.342-0.006,2.685-0.006,4.026,0c0.336,0.001,0.581-0.128,0.577-0.472
		c-0.005-0.346-0.258-0.464-0.589-0.458C-7.348-78.308-8.02-78.314-8.689-78.314z M-13.696-77.396c0.208,0,0.438,0.057,0.614-0.018
		c0.171-0.069,0.386-0.271,0.393-0.422c0.007-0.15-0.207-0.426-0.353-0.446c-0.42-0.061-0.861-0.062-1.281-0.001
		c-0.152,0.021-0.373,0.285-0.372,0.436c0.004,0.151,0.217,0.361,0.385,0.434C-14.135-77.338-13.903-77.397-13.696-77.396z"/>
	<path style="fill-rule:evenodd;clip-rule:evenodd;fill:#FFFFFF;" d="M-12.029-82.398c-2.255,1.707-4.458,3.375-6.746,5.107
		c0-3.442,0-6.792,0-10.212C-16.531-85.805-14.3-84.117-12.029-82.398z"/>
	<path style="fill-rule:evenodd;clip-rule:evenodd;fill:#FFFFFF;" d="M1.864-77.283c-2.302-1.743-4.496-3.405-6.753-5.113
		c2.257-1.711,4.487-3.4,6.753-5.117C1.864-84.092,1.864-80.742,1.864-77.283z"/>
	<path style="fill-rule:evenodd;clip-rule:evenodd;fill:#FFFFFF;" d="M-0.312-87.056c0-0.996,0-1.894,0-2.879
		c0.658,0.497,1.255,0.949,1.905,1.441C0.954-88.011,0.357-87.56-0.312-87.056z"/>
	<path style="fill-rule:evenodd;clip-rule:evenodd;fill:#FFFFFF;" d="M-18.52-88.495c0.656-0.493,1.245-0.937,1.893-1.424
		c0,0.962,0,1.865,0,2.853C-17.257-87.542-17.859-87.997-18.52-88.495z"/>
	<path style="fill-rule:evenodd;clip-rule:evenodd;fill:#FFFFFF;" d="M-7.388-91.474c-0.12,0.551-0.163,1.117-0.378,1.609
		c-0.179,0.413-0.504,0.814-0.866,1.082c-0.462,0.34-0.986,0.061-1.056-0.5C-9.838-90.525-8.749-91.843-7.388-91.474z"/>
</g>
<g>
	<path style="fill-rule:evenodd;clip-rule:evenodd;fill:#FFFFFF;" d="M36.729-86.376c-1.471,0-2.864,0-4.311,0
		c0-3.447,0-6.871,0-10.362c-0.707,0-1.364,0-2.054,0c0-1.261,0-2.458,0-3.698c0.658,0,1.304,0,2.033,0
		c0-0.239-0.01-0.437,0.002-0.634c0.063-1.075,0-2.179,0.229-3.217c0.38-1.72,1.736-2.769,3.498-2.85
		c1.252-0.057,2.508-0.011,3.797-0.011c0,1.168,0,2.321,0,3.544c-0.686,0-1.379-0.001-2.071,0c-0.825,0.001-1.13,0.293-1.138,1.108
		c-0.007,0.636,0.002,1.272,0.006,1.908c0.001,0.028,0.021,0.056,0.053,0.132c1.038,0,2.096,0,3.226,0
		c-0.093,0.964-0.169,1.875-0.272,2.784c-0.104,0.914-0.117,0.912-1.058,0.912c-0.633,0-1.267,0-1.94,0
		C36.729-93.289,36.729-89.859,36.729-86.376z"/>
</g>
<g>
	<path style="fill-rule:evenodd;clip-rule:evenodd;fill:#FFFFFF;" d="M20.027,30.231c-1.494,0-2.991,0.061-4.481-0.012
		c-3.551-0.175-5.711-2.391-5.776-5.949c-0.054-2.895-0.054-5.793,0-8.69c0.044-2.393,1.024-4.292,3.306-5.291
		c0.669-0.292,1.435-0.487,2.159-0.499c3.217-0.051,6.436-0.068,9.65-0.004c2.86,0.057,5.26,2.441,5.329,5.324
		c0.076,3.246,0.077,6.497-0.001,9.742c-0.07,2.894-2.267,5.139-5.156,5.319c-1.671,0.104-3.352,0.018-5.029,0.018
		C20.027,30.204,20.027,30.218,20.027,30.231z M28.434,20.035c0,0,0,0-0.002,0c0-1.448,0.001-2.897-0.001-4.345
		c0-0.107-0.008-0.213-0.015-0.319c-0.133-2.121-1.521-3.553-3.633-3.687c-0.942-0.059-1.891-0.038-2.834-0.039
		c-2.12-0.001-4.239-0.031-6.357,0.021c-2.392,0.059-3.87,1.479-3.913,3.813c-0.056,3.002-0.052,6.007,0.001,9.01
		c0.038,2.184,1.274,3.504,3.445,3.79c0.661,0.087,1.338,0.063,2.007,0.065c2.349,0.006,4.695,0.016,7.043-0.002
		c2.696-0.021,4.245-1.59,4.259-4.283C28.439,22.718,28.434,21.376,28.434,20.035z"/>
	<path style="fill-rule:evenodd;clip-rule:evenodd;fill:#FFFFFF;" d="M14.729,19.992c-0.078-2.822,2.257-5.231,5.162-5.328
		c2.803-0.093,5.321,2.263,5.399,5.052c0.083,2.978-2.2,5.45-5.101,5.522C17.182,25.315,14.812,23.037,14.729,19.992z M20.022,23.33
		c1.859-0.003,3.37-1.519,3.364-3.381c-0.005-1.881-1.535-3.401-3.414-3.388c-1.813,0.012-3.35,1.554-3.355,3.368
		C16.613,21.802,18.146,23.332,20.022,23.33z"/>
	<path style="fill-rule:evenodd;clip-rule:evenodd;fill:#FFFFFF;" d="M26.691,14.528c0.004,0.67-0.512,1.195-1.176,1.199
		c-0.66,0.004-1.201-0.523-1.211-1.179c-0.011-0.641,0.539-1.196,1.19-1.202C26.157,13.34,26.688,13.865,26.691,14.528z"/>
</g>
</svg>
