<?xml version="1.0" encoding="iso-8859-1"?>
<!-- Generator: Adobe Illustrator 16.0.0, SVG Export Plug-In . SVG Version: 6.00 Build 0)  -->
<!DOCTYPE svg PUBLIC "-//W3C//DTD SVG 1.1//EN" "http://www.w3.org/Graphics/SVG/1.1/DTD/svg11.dtd">
<svg version="1.1" id="Layer_1" xmlns="http://www.w3.org/2000/svg" xmlns:xlink="http://www.w3.org/1999/xlink" x="0px" y="0px"
	 width="70px" height="70px" viewBox="0 0 70 70" style="enable-background:new 0 0 70 70;" xml:space="preserve">
<g>
	<path style="fill:none;stroke:#D83235;stroke-width:4;stroke-miterlimit:10;" d="M34.557,8.961c0.243-0.494,0.642-0.494,0.885,0
		l8.259,16.735c0.244,0.493,0.889,0.961,1.433,1.041l18.468,2.683c0.545,0.079,0.668,0.458,0.273,0.842L50.512,43.288
		c-0.395,0.384-0.641,1.142-0.547,1.685l3.154,18.395c0.093,0.542-0.229,0.775-0.717,0.52l-16.52-8.684
		c-0.487-0.258-1.284-0.258-1.771,0l-16.517,8.683c-0.487,0.259-0.809,0.022-0.716-0.52l3.155-18.396
		c0.093-0.541-0.153-1.3-0.547-1.684L6.125,30.263C5.73,29.878,5.854,29.5,6.397,29.42l18.468-2.684
		c0.544-0.079,1.189-0.547,1.432-1.041L34.557,8.961z"/>
</g>
<g>
	<path style="fill:#D83235;" d="M45.134,26.737c-0.544-0.08-1.188-0.548-1.433-1.041L35.442,8.961c-0.243-0.494-0.642-0.494-0.885,0
		l-8.26,16.734c-0.243,0.494-0.888,0.962-1.432,1.041L6.397,29.42c-0.543,0.08-0.667,0.458-0.272,0.843l13.362,13.024
		c0.394,0.384,0.64,1.143,0.547,1.684l-3.155,18.396c-0.093,0.542,0.229,0.778,0.716,0.52l16.517-8.683
		c0.487-0.258,1.284-0.258,1.771,0l10.284,5.406V26.887L45.134,26.737z"/>
</g>
</svg>
