<?xml version="1.0" encoding="iso-8859-1"?>
<!-- Generator: Adobe Illustrator 16.0.0, SVG Export Plug-In . SVG Version: 6.00 Build 0)  -->
<!DOCTYPE svg PUBLIC "-//W3C//DTD SVG 1.1//EN" "http://www.w3.org/Graphics/SVG/1.1/DTD/svg11.dtd">
<svg version="1.1" id="Layer_1" xmlns="http://www.w3.org/2000/svg" xmlns:xlink="http://www.w3.org/1999/xlink" x="0px" y="0px"
	 width="70px" height="70px" viewBox="0 0 70 70" style="enable-background:new 0 0 70 70;" xml:space="preserve">
<g>
	<path style="fill:#D82F35;" d="M34.509,8.607c0.243-0.494,0.642-0.494,0.885,0l8.259,16.735c0.244,0.493,0.889,0.961,1.433,1.041
		l18.468,2.683c0.544,0.079,0.667,0.458,0.273,0.842L50.464,42.934c-0.395,0.384-0.641,1.142-0.547,1.685l3.154,18.394
		c0.093,0.542-0.229,0.776-0.717,0.52l-16.519-8.684c-0.487-0.257-1.284-0.257-1.771,0L17.548,63.53
		c-0.487,0.258-0.809,0.022-0.716-0.52l3.155-18.395c0.093-0.541-0.153-1.3-0.547-1.684L6.077,29.908
		c-0.394-0.384-0.271-0.763,0.273-0.842l18.468-2.684c0.544-0.079,1.189-0.547,1.432-1.041L34.509,8.607z"/>
</g>
</svg>
